<svg width="233" height="96" viewBox="0 0 233 96" fill="none" xmlns="http://www.w3.org/2000/svg">
<g filter="url(#filter0_dd_5762_39373)">
<rect x="16" y="8" width="201" height="64" rx="8" fill="url(#paint0_linear_5762_39373)" fill-opacity="0.9"/>
<path d="M64.019 38.645C63.9833 34.353 67.5068 32.267 67.6616 32.1711C65.6617 29.2458 62.5667 28.8382 61.4834 28.8022C58.8884 28.5265 56.3648 30.3728 55.0434 30.3728C53.6983 30.3728 51.6508 28.8382 49.4605 28.8742C46.6392 28.9221 43.9847 30.5646 42.5443 33.1302C39.5564 38.3453 41.7824 46.0181 44.6513 50.2382C46.0917 52.3002 47.7582 54.6141 49.9604 54.5301C52.1031 54.4462 52.9126 53.1514 55.4958 53.1514C58.067 53.1514 58.817 54.5301 61.0549 54.4822C63.3643 54.4462 64.8046 52.4081 66.1974 50.3221C67.852 47.9603 68.5187 45.6225 68.5425 45.5026C68.483 45.4786 64.0666 43.7762 64.019 38.645Z" fill="white"/>
<path d="M59.7931 26.033C60.9477 24.5823 61.7334 22.6042 61.5191 20.5901C59.8526 20.662 57.7575 21.753 56.5552 23.1797C55.4957 24.4385 54.5434 26.4886 54.7815 28.4187C56.6623 28.5626 58.5908 27.4596 59.7931 26.033Z" fill="white"/>
<path d="M100.346 54.2305H97.3462L95.7034 49.0273H89.9895L88.4301 54.2305H85.5137L91.168 36.5231H94.6678L100.346 54.2305ZM95.2154 46.8454L93.7274 42.2297C93.5726 41.7502 93.275 40.6472 92.8465 38.8968H92.787C92.6084 39.6521 92.3346 40.7671 91.9537 42.2297L90.4895 46.8454H95.2154Z" fill="white"/>
<path d="M114.881 47.6968C114.881 49.8667 114.298 51.5811 113.119 52.8399C112.072 53.9669 110.762 54.5184 109.215 54.5184C107.536 54.5184 106.334 53.9189 105.596 52.7081V59.4098H102.775V45.6587C102.775 44.292 102.739 42.9013 102.667 41.4626H105.143L105.298 43.4887H105.346C106.286 41.9661 107.715 41.1989 109.619 41.1989C111.119 41.1989 112.357 41.7983 113.357 42.9852C114.381 44.1841 114.881 45.7426 114.881 47.6968ZM112.012 47.7927C112.012 46.5458 111.738 45.5268 111.179 44.7236C110.572 43.8843 109.75 43.4647 108.727 43.4647C108.036 43.4647 107.405 43.7045 106.834 44.1601C106.274 44.6276 105.893 45.2271 105.727 45.9824C105.643 46.33 105.596 46.6178 105.596 46.8456V48.9796C105.596 49.9027 105.882 50.694 106.441 51.3294C107.001 51.9648 107.739 52.2885 108.643 52.2885C109.703 52.2885 110.524 51.8689 111.119 51.0536C111.714 50.2264 112.012 49.1474 112.012 47.7927Z" fill="white"/>
<path d="M129.451 47.6968C129.451 49.8667 128.868 51.5811 127.689 52.8399C126.642 53.9669 125.332 54.5184 123.785 54.5184C122.107 54.5184 120.904 53.9189 120.166 52.7081V59.4098H117.345V45.6587C117.345 44.292 117.309 42.9013 117.238 41.4626H119.714L119.869 43.4887H119.916C120.857 41.9661 122.285 41.1989 124.19 41.1989C125.69 41.1989 126.928 41.7983 127.928 42.9852C128.951 44.1841 129.451 45.7426 129.451 47.6968ZM126.582 47.7927C126.582 46.5458 126.309 45.5268 125.749 44.7236C125.142 43.8843 124.321 43.4647 123.297 43.4647C122.606 43.4647 121.976 43.7045 121.404 44.1601C120.845 44.6276 120.476 45.2271 120.297 45.9824C120.214 46.33 120.166 46.6178 120.166 46.8456V48.9796C120.166 49.9027 120.452 50.694 121.011 51.3294C121.571 51.9648 122.309 52.2885 123.214 52.2885C124.273 52.2885 125.106 51.8689 125.69 51.0536C126.297 50.2264 126.582 49.1474 126.582 47.7927Z" fill="white"/>
<path d="M145.759 49.2674C145.759 50.778 145.235 52.0009 144.2 52.948C143.057 53.979 141.462 54.4945 139.414 54.4945C137.522 54.4945 136.01 54.1229 134.867 53.3915L135.522 51.0298C136.76 51.7611 138.117 52.1327 139.593 52.1327C140.652 52.1327 141.486 51.893 142.069 51.4134C142.664 50.9339 142.962 50.2865 142.962 49.4832C142.962 48.7639 142.712 48.1644 142.236 47.6729C141.748 47.1814 140.938 46.7258 139.807 46.3062C136.7 45.1433 135.165 43.4529 135.165 41.235C135.165 39.7843 135.712 38.5974 136.796 37.6623C137.879 36.7392 139.319 36.2716 141.117 36.2716C142.712 36.2716 144.045 36.5473 145.105 37.1108L144.39 39.4127C143.39 38.8732 142.271 38.5974 141.01 38.5974C140.022 38.5974 139.236 38.8492 138.676 39.3287C138.212 39.7723 137.974 40.2998 137.974 40.9352C137.974 41.6306 138.248 42.218 138.784 42.6616C139.248 43.0812 140.105 43.5368 141.343 44.0283C142.855 44.6398 143.962 45.3591 144.676 46.1863C145.402 47.0135 145.759 48.0446 145.759 49.2674Z" fill="white"/>
<path d="M155.092 43.5968H151.985V49.795C151.985 51.3655 152.533 52.1568 153.628 52.1568C154.128 52.1568 154.545 52.1088 154.878 52.0249L154.961 54.1829C154.402 54.3867 153.676 54.4946 152.771 54.4946C151.652 54.4946 150.795 54.1469 150.164 53.4635C149.533 52.7802 149.224 51.6293 149.224 50.0228V43.5848H147.378V41.4628H149.224V39.125L151.985 38.2858V41.4628H155.092V43.5968Z" fill="white"/>
<path d="M169.067 47.7451C169.067 49.7112 168.508 51.3177 167.401 52.5765C166.234 53.8713 164.687 54.5187 162.758 54.5187C160.901 54.5187 159.413 53.8953 158.306 52.6605C157.199 51.4256 156.651 49.8551 156.651 47.9609C156.651 45.9827 157.223 44.3642 158.354 43.1054C159.496 41.8466 161.032 41.2112 162.96 41.2112C164.817 41.2112 166.317 41.8346 167.448 43.0814C168.531 44.2803 169.067 45.8388 169.067 47.7451ZM166.151 47.805C166.151 46.6301 165.901 45.635 165.401 44.7958C164.806 43.7768 163.96 43.2732 162.865 43.2732C161.734 43.2732 160.865 43.7768 160.282 44.7958C159.77 45.635 159.532 46.6541 159.532 47.8649C159.532 49.0398 159.782 50.0469 160.282 50.8741C160.889 51.8932 161.746 52.3967 162.841 52.3967C163.913 52.3967 164.758 51.8812 165.377 50.8501C165.889 49.987 166.151 48.9799 166.151 47.805Z" fill="white"/>
<path d="M178.233 43.9563C177.959 43.9083 177.662 43.8843 177.34 43.8843C176.352 43.8843 175.579 44.256 175.043 45.0113C174.579 45.6707 174.341 46.5219 174.341 47.5289V54.2306H171.519V45.4788C171.519 44.0042 171.496 42.6615 171.436 41.4626H173.888L173.995 43.9083H174.079C174.376 43.0691 174.841 42.3857 175.483 41.8822C176.114 41.4266 176.793 41.1989 177.519 41.1989C177.781 41.1989 178.019 41.2228 178.221 41.2468L178.233 43.9563Z" fill="white"/>
<path d="M190.828 47.2414C190.828 47.7449 190.792 48.1765 190.721 48.5242H182.269C182.305 49.783 182.709 50.7541 183.495 51.4135C184.209 52.0009 185.126 52.3006 186.257 52.3006C187.507 52.3006 188.649 52.0968 189.673 51.7012L190.114 53.6674C188.911 54.1949 187.495 54.4586 185.864 54.4586C183.9 54.4586 182.352 53.8712 181.233 52.7083C180.114 51.5454 179.555 49.9748 179.555 48.0207C179.555 46.1025 180.078 44.496 181.126 43.2132C182.221 41.8464 183.697 41.1631 185.554 41.1631C187.376 41.1631 188.768 41.8464 189.697 43.2132C190.447 44.3161 190.828 45.6469 190.828 47.2414ZM188.137 46.5101C188.161 45.6709 187.971 44.9395 187.59 44.3281C187.102 43.5369 186.352 43.1412 185.352 43.1412C184.435 43.1412 183.685 43.5249 183.114 44.2922C182.65 44.9036 182.364 45.6469 182.281 46.4981L188.137 46.5101Z" fill="white"/>
<path d="M93.8591 30.1936H92.383L91.5736 27.64H88.7642L87.9905 30.1936H86.562L89.3356 21.4897H91.0498L93.8591 30.1936ZM91.3236 26.561L90.5974 24.2831C90.526 24.0553 90.3832 23.5039 90.157 22.6407H90.1332C90.038 23.0123 89.9189 23.5518 89.7166 24.2831L89.0023 26.561H91.3236Z" fill="white"/>
<path d="M100.811 23.9113L98.4539 30.1934H97.1088L94.8232 23.9113H96.3112L97.3707 27.2321C97.5492 27.7836 97.704 28.3111 97.823 28.8147H97.8587C97.9659 28.3591 98.1206 27.8316 98.3111 27.2321L99.3586 23.9113H100.811Z" fill="white"/>
<path d="M105.835 30.1935L105.727 29.4741H105.692C105.263 30.0496 104.656 30.3373 103.87 30.3373C102.751 30.3373 101.966 29.5461 101.966 28.4911C101.966 26.9445 103.299 26.1413 105.608 26.1413V26.0214C105.608 25.1942 105.168 24.7865 104.311 24.7865C103.692 24.7865 103.156 24.9424 102.68 25.2541L102.394 24.343C102.966 23.9833 103.692 23.8035 104.537 23.8035C106.168 23.8035 106.989 24.6667 106.989 26.405V28.7189C106.989 29.3543 107.013 29.8458 107.085 30.2175L105.835 30.1935ZM105.644 27.0644C104.109 27.0644 103.335 27.4361 103.335 28.3352C103.335 28.9946 103.728 29.3183 104.287 29.3183C104.989 29.3183 105.644 28.7788 105.644 28.0355V27.0644Z" fill="white"/>
<path d="M110.073 22.8799C109.608 22.8799 109.251 22.5203 109.251 22.0407C109.251 21.5612 109.62 21.2135 110.097 21.2135C110.573 21.2135 110.954 21.5612 110.942 22.0407C110.942 22.5443 110.585 22.8799 110.073 22.8799ZM109.406 23.911H110.787V30.1811H109.406V23.911Z" fill="white"/>
<path d="M113.25 21.0339H114.632V30.1814H113.25V21.0339Z" fill="white"/>
<path d="M120.512 30.193L120.405 29.4737H120.369C119.94 30.0491 119.333 30.3369 118.548 30.3369C117.429 30.3369 116.643 29.5456 116.643 28.4906C116.643 26.9441 117.976 26.1408 120.286 26.1408V26.0209C120.286 25.1937 119.845 24.7861 118.988 24.7861C118.369 24.7861 117.833 24.9419 117.357 25.2536L117.072 24.3305C117.643 23.9708 118.369 23.791 119.214 23.791C120.845 23.791 121.667 24.6542 121.667 26.3926V28.7064C121.667 29.3418 121.69 29.8334 121.75 30.205H120.512V30.193ZM120.321 27.0639C118.786 27.0639 118.012 27.4356 118.012 28.3348C118.012 28.9941 118.405 29.3178 118.964 29.3178C119.667 29.3178 120.321 28.7783 120.321 28.035V27.0639Z" fill="white"/>
<path d="M127.285 30.3372C126.405 30.3372 125.75 29.9656 125.321 29.2223H125.297L125.214 30.1934H124.036C124.071 29.6898 124.083 29.1264 124.083 28.5029V21.0339H125.476V24.8344H125.5C125.916 24.139 126.571 23.7914 127.488 23.7914C128.988 23.7914 130.035 25.0861 130.035 26.9684C130.035 28.9106 128.869 30.3372 127.285 30.3372ZM127 24.8823C126.202 24.8823 125.476 25.5777 125.476 26.5488V27.6517C125.476 28.5149 126.131 29.2223 126.976 29.2223C128.012 29.2223 128.631 28.3711 128.631 27.0163C128.631 25.7455 127.988 24.8823 127 24.8823Z" fill="white"/>
<path d="M132.083 21.0339H133.464V30.1814H132.083V21.0339Z" fill="white"/>
<path d="M140.998 27.3878H136.844C136.868 28.5747 137.653 29.2461 138.808 29.2461C139.427 29.2461 139.987 29.1382 140.487 28.9464L140.701 29.9174C140.118 30.1812 139.427 30.3011 138.618 30.3011C136.665 30.3011 135.511 29.0662 135.511 27.1361C135.511 25.2179 136.689 23.7672 138.463 23.7672C140.046 23.7672 141.058 24.9541 141.058 26.7524C141.058 27.0042 141.046 27.22 140.998 27.3878ZM139.737 26.3927C139.737 25.4217 139.249 24.7383 138.368 24.7383C137.57 24.7383 136.951 25.4336 136.856 26.3927H139.737Z" fill="white"/>
<path d="M149.391 30.3369C147.57 30.3369 146.391 28.9702 146.391 27.1119C146.391 25.1697 147.593 23.791 149.498 23.791C151.296 23.791 152.498 25.0978 152.498 27.004C152.498 28.9582 151.26 30.3369 149.391 30.3369ZM149.45 24.8101C148.451 24.8101 147.808 25.7572 147.808 27.0639C147.808 28.3587 148.462 29.2939 149.439 29.2939C150.415 29.2939 151.069 28.2868 151.069 27.028C151.057 25.7572 150.427 24.8101 149.45 24.8101Z" fill="white"/>
<path d="M159.938 30.1932H158.557V26.5845C158.557 25.4696 158.128 24.9181 157.295 24.9181C156.474 24.9181 155.914 25.6254 155.914 26.4527V30.1812H154.533V25.7094C154.533 25.1579 154.522 24.5584 154.486 23.9111H155.7L155.76 24.8821H155.795C156.164 24.2108 156.926 23.7792 157.771 23.7792C159.081 23.7792 159.938 24.7862 159.938 26.4287V30.1932Z" fill="white"/>
<path d="M168.997 24.9662H167.473V28.0114C167.473 28.7906 167.747 29.1743 168.282 29.1743C168.521 29.1743 168.735 29.1503 168.902 29.1143L168.937 30.1693C168.663 30.2772 168.306 30.3252 167.866 30.3252C166.771 30.3252 166.128 29.7138 166.128 28.1312V24.9662H165.223V23.9232H166.128V22.7723L167.485 22.3527V23.9112H169.009V24.9662" fill="white"/>
<path d="M176.33 30.1934H174.949V26.6087C174.949 25.4818 174.52 24.9183 173.687 24.9183C172.973 24.9183 172.306 25.4098 172.306 26.4049V30.1814H170.925V21.0339H172.306V24.7984H172.33C172.77 24.115 173.389 23.7794 174.199 23.7794C175.52 23.7794 176.33 24.8104 176.33 26.4529V30.1934Z" fill="white"/>
<path d="M183.4 27.3878H179.246C179.27 28.5747 180.055 29.2461 181.21 29.2461C181.829 29.2461 182.388 29.1382 182.888 28.9464L183.103 29.9174C182.519 30.1812 181.829 30.3011 181.02 30.3011C179.067 30.3011 177.913 29.0662 177.913 27.1361C177.913 25.2179 179.091 23.7672 180.865 23.7672C182.448 23.7672 183.46 24.9541 183.46 26.7524C183.46 27.0042 183.448 27.22 183.4 27.3878ZM182.139 26.3927C182.139 25.4217 181.65 24.7383 180.77 24.7383C179.972 24.7383 179.341 25.4336 179.258 26.3927H182.139Z" fill="white"/>
<rect x="16.5" y="8.5" width="200" height="63" rx="7.5" stroke="#454056"/>
</g>
<defs>
<filter id="filter0_dd_5762_39373" x="0" y="0" width="233" height="96" filterUnits="userSpaceOnUse" color-interpolation-filters="sRGB">
<feFlood flood-opacity="0" result="BackgroundImageFix"/>
<feColorMatrix in="SourceAlpha" type="matrix" values="0 0 0 0 0 0 0 0 0 0 0 0 0 0 0 0 0 0 127 0" result="hardAlpha"/>
<feOffset dy="8"/>
<feGaussianBlur stdDeviation="8"/>
<feColorMatrix type="matrix" values="0 0 0 0 0.121569 0 0 0 0 0.105882 0 0 0 0 0.176471 0 0 0 0.16 0"/>
<feBlend mode="normal" in2="BackgroundImageFix" result="effect1_dropShadow_5762_39373"/>
<feColorMatrix in="SourceAlpha" type="matrix" values="0 0 0 0 0 0 0 0 0 0 0 0 0 0 0 0 0 0 127 0" result="hardAlpha"/>
<feMorphology radius="6" operator="erode" in="SourceAlpha" result="effect2_dropShadow_5762_39373"/>
<feOffset dy="4"/>
<feGaussianBlur stdDeviation="6"/>
<feColorMatrix type="matrix" values="0 0 0 0 0.121569 0 0 0 0 0.105882 0 0 0 0 0.176471 0 0 0 0.2 0"/>
<feBlend mode="normal" in2="effect1_dropShadow_5762_39373" result="effect2_dropShadow_5762_39373"/>
<feBlend mode="normal" in="SourceGraphic" in2="effect2_dropShadow_5762_39373" result="shape"/>
</filter>
<linearGradient id="paint0_linear_5762_39373" x1="116.5" y1="8" x2="116.5" y2="72" gradientUnits="userSpaceOnUse">
<stop stop-color="#454056" stop-opacity="0.85"/>
<stop offset="1" stop-color="#454056"/>
</linearGradient>
</defs>
</svg>
