<svg width="233" height="96" viewBox="0 0 233 96" fill="none" xmlns="http://www.w3.org/2000/svg">
<g filter="url(#filter0_dd_5762_39403)">
<rect x="16" y="8" width="201" height="64" rx="8" fill="url(#paint0_linear_5762_39403)" fill-opacity="0.9"/>
<path d="M88.375 25.3172C88.375 26.4632 88.0999 27.4659 87.4123 28.1821C86.5871 29.0416 85.6243 29.4714 84.3866 29.4714C83.1488 29.4714 82.186 29.0416 81.3608 28.1821C80.5356 27.3227 80.123 26.3199 80.123 25.0307C80.123 23.7415 80.5356 22.7388 81.3608 21.8793C82.186 21.0198 83.1488 20.5901 84.3866 20.5901C84.9367 20.5901 85.4868 20.7333 86.0369 21.0198C86.5871 21.3063 86.9997 21.5928 87.2747 22.0225L86.5871 22.7388C86.0369 22.0225 85.3493 21.7361 84.3866 21.7361C83.5614 21.7361 82.7362 22.0225 82.186 22.7388C81.4984 23.3118 81.2233 24.1712 81.2233 25.174C81.2233 26.1767 81.4984 27.0362 82.186 27.6091C82.8737 28.1821 83.5614 28.6119 84.3866 28.6119C85.3493 28.6119 86.0369 28.3254 86.7246 27.6091C87.1372 27.1794 87.4123 26.6064 87.4123 25.8902H84.3866V24.7442H88.375V25.3172ZM94.7015 21.7361H90.9881V24.4577H94.4264V25.4605H90.9881V28.1821H94.7015V29.3281H89.8879V20.7333H94.7015V21.7361ZM99.2401 29.3281H98.1398V21.7361H95.8017V20.7333H101.578V21.7361H99.2401V29.3281ZM105.567 29.3281V20.7333H106.667V29.3281H105.567ZM111.343 29.3281H110.243V21.7361H107.905V20.7333H113.543V21.7361H111.205V29.3281H111.343ZM124.409 28.1821C123.583 29.0416 122.621 29.4714 121.383 29.4714C120.145 29.4714 119.182 29.0416 118.357 28.1821C117.532 27.3227 117.119 26.3199 117.119 25.0307C117.119 23.7415 117.532 22.7388 118.357 21.8793C119.182 21.0198 120.145 20.5901 121.383 20.5901C122.621 20.5901 123.583 21.0198 124.409 21.8793C125.234 22.7388 125.646 23.7415 125.646 25.0307C125.646 26.3199 125.234 27.3227 124.409 28.1821ZM119.182 27.4659C119.732 28.0389 120.558 28.4686 121.383 28.4686C122.208 28.4686 123.033 28.1821 123.583 27.4659C124.133 26.8929 124.546 26.0334 124.546 25.0307C124.546 24.028 124.271 23.1685 123.583 22.5955C123.033 22.0225 122.208 21.5928 121.383 21.5928C120.558 21.5928 119.732 21.8793 119.182 22.5955C118.632 23.1685 118.22 24.028 118.22 25.0307C118.22 26.0334 118.495 26.8929 119.182 27.4659ZM127.159 29.3281V20.7333H128.397L132.385 27.4659V20.7333H133.486V29.3281H132.385L128.122 22.309V29.3281H127.159Z" fill="white"/>
<path d="M116.844 41.934C113.543 41.934 110.93 44.5124 110.93 48.0936C110.93 51.5315 113.543 54.2532 116.844 54.2532C120.145 54.2532 122.758 51.6747 122.758 48.0936C122.758 44.3692 120.145 41.934 116.844 41.934ZM116.844 51.6747C115.056 51.6747 113.543 50.099 113.543 47.9503C113.543 45.8016 115.056 44.2259 116.844 44.2259C118.632 44.2259 120.145 45.6584 120.145 47.9503C120.145 50.099 118.632 51.6747 116.844 51.6747ZM104.053 41.934C100.752 41.934 98.1393 44.5124 98.1393 48.0936C98.1393 51.5315 100.752 54.2532 104.053 54.2532C107.354 54.2532 109.967 51.6747 109.967 48.0936C109.967 44.3692 107.354 41.934 104.053 41.934ZM104.053 51.6747C102.265 51.6747 100.752 50.099 100.752 47.9503C100.752 45.8016 102.265 44.2259 104.053 44.2259C105.841 44.2259 107.354 45.6584 107.354 47.9503C107.354 50.099 105.841 51.6747 104.053 51.6747ZM88.7871 43.7962V46.3746H94.701C94.5635 47.8071 94.0133 48.9531 93.3257 49.6693C92.5005 50.5288 91.1252 51.5315 88.7871 51.5315C85.0737 51.5315 82.3231 48.5233 82.3231 44.6557C82.3231 40.788 85.2113 37.7798 88.7871 37.7798C90.7126 37.7798 92.2254 38.6393 93.3257 39.642L95.1136 37.7798C93.6007 36.3474 91.6753 35.2014 88.9246 35.2014C83.9735 35.2014 79.71 39.4988 79.71 44.6557C79.71 49.8125 83.9735 54.1099 88.9246 54.1099C91.6753 54.1099 93.6007 53.2504 95.2511 51.3882C96.9015 49.6693 97.4517 47.2341 97.4517 45.3719C97.4517 44.7989 97.4517 44.2259 97.3141 43.7962H88.7871V43.7962ZM151.227 45.8016C150.677 44.3692 149.301 41.934 146.276 41.934C143.25 41.934 140.774 44.3692 140.774 48.0936C140.774 51.5315 143.25 54.2532 146.551 54.2532C149.164 54.2532 150.814 52.5342 151.364 51.5315L149.439 50.099C148.751 51.1017 147.926 51.818 146.551 51.818C145.175 51.818 144.35 51.245 143.663 49.9558L151.502 46.5179L151.227 45.8016V45.8016ZM143.25 47.8071C143.25 45.5151 145.038 44.2259 146.276 44.2259C147.238 44.2259 148.201 44.7989 148.476 45.5151L143.25 47.8071ZM136.786 53.6802H139.399V35.7744H136.786V53.6802ZM132.66 43.2232C131.972 42.507 130.872 41.7907 129.497 41.7907C126.609 41.7907 123.858 44.5124 123.858 47.9503C123.858 51.3882 126.471 53.9667 129.497 53.9667C130.872 53.9667 131.972 53.2504 132.522 52.5342H132.66V53.3937C132.66 55.6856 131.422 56.9748 129.497 56.9748C127.984 56.9748 126.884 55.8289 126.609 54.8261L124.408 55.8289C125.096 57.4046 126.746 59.41 129.634 59.41C132.66 59.41 135.136 57.5478 135.136 53.1072V42.2205H132.66V43.2232V43.2232ZM129.634 51.6747C127.846 51.6747 126.333 50.099 126.333 47.9503C126.333 45.8016 127.846 44.2259 129.634 44.2259C131.422 44.2259 132.798 45.8016 132.798 47.9503C132.798 50.099 131.422 51.6747 129.634 51.6747ZM163.192 35.7744H157.003V53.6802H159.616V46.9476H163.192C166.08 46.9476 168.831 44.7989 168.831 41.361C168.831 37.9231 166.08 35.7744 163.192 35.7744V35.7744ZM163.33 44.3692H159.616V38.2096H163.33C165.255 38.2096 166.355 39.9285 166.355 41.2178C166.218 42.7935 165.118 44.3692 163.33 44.3692ZM179.146 41.7907C177.221 41.7907 175.295 42.6502 174.607 44.5124L176.945 45.5151C177.496 44.5124 178.321 44.2259 179.283 44.2259C180.659 44.2259 181.897 45.0854 182.034 46.5179V46.6611C181.622 46.3746 180.521 45.9449 179.421 45.9449C176.945 45.9449 174.47 47.3773 174.47 49.9558C174.47 52.391 176.533 53.9667 178.733 53.9667C180.521 53.9667 181.346 53.1072 182.034 52.2477H182.172V53.6802H184.647V46.8044C184.372 43.6529 182.034 41.7907 179.146 41.7907V41.7907ZM178.871 51.6747C178.046 51.6747 176.808 51.245 176.808 50.099C176.808 48.6666 178.321 48.2368 179.559 48.2368C180.659 48.2368 181.209 48.5233 181.897 48.8098C181.622 50.5288 180.246 51.6747 178.871 51.6747V51.6747ZM193.312 42.2205L190.424 49.9558H190.286L187.26 42.2205H184.51L189.048 53.1072L186.435 59.1235H189.048L196.062 42.2205H193.312V42.2205ZM170.206 53.6802H172.819V35.7744H170.206V53.6802Z" fill="white"/>
<path d="M37.1875 24.7282C37.1875 24.0831 37.2765 23.5815 37.4823 23.2432L53.6515 39.4612V39.5217L37.7216 55.7573C37.4101 55.4086 37.1875 54.8333 37.1875 54.1205V24.7282Z" fill="white" stroke="#454056" stroke-width="0.5"/>
<path d="M59.1278 34.2557L65.52 37.9785C66.3872 38.4835 66.766 39.1122 66.766 39.6909C66.766 40.269 66.388 40.897 65.5226 41.4018L59.1668 44.8998L54.021 39.6552V39.4606L59.1278 34.2557Z" fill="white" stroke="#454056" stroke-width="0.5"/>
<path d="M37.8236 56.1022L53.772 39.8477L58.8499 45.023L40.0858 56.026C39.5226 56.2797 39.0447 56.3955 38.644 56.3809C38.3328 56.3696 38.0617 56.2797 37.8236 56.1022Z" fill="white" stroke="#454056" stroke-width="0.5"/>
<path d="M58.8487 33.9609L53.7713 39.1358L37.8223 23.0107C38.0676 22.818 38.3437 22.707 38.653 22.6845C39.0464 22.6558 39.5187 22.7687 40.0765 23.0843C40.0769 23.0845 40.0773 23.0847 40.0776 23.0849L58.8487 33.9609Z" fill="white" stroke="#454056" stroke-width="0.5"/>
<g opacity="0.2">
<mask id="path-9-inside-1_5762_39403" fill="white">
<path d="M59.1222 44.9438L40.2008 55.8496C39.1569 56.5146 38.2434 56.3816 37.5909 55.8496L37.4604 55.9826L37.5909 56.1156C38.2434 56.6476 39.1569 56.7806 40.2008 56.1156L59.1222 44.9438Z"/>
</mask>
<path d="M59.1222 44.9438L40.2008 55.8496C39.1569 56.5146 38.2434 56.3816 37.5909 55.8496L37.4604 55.9826L37.5909 56.1156C38.2434 56.6476 39.1569 56.7806 40.2008 56.1156L59.1222 44.9438Z" fill="white"/>
<path d="M59.1222 44.9438L59.3764 45.3744L58.8725 44.5107L59.1222 44.9438ZM40.2008 55.8496L39.9511 55.4164L39.9415 55.4219L39.9322 55.4279L40.2008 55.8496ZM37.5909 55.8496L37.9069 55.4621L37.5534 55.1739L37.234 55.4994L37.5909 55.8496ZM37.4604 55.9826L37.1035 55.6324L36.76 55.9826L37.1036 56.3328L37.4604 55.9826ZM37.5909 56.1156L37.234 56.4658L37.2535 56.4856L37.275 56.5031L37.5909 56.1156ZM40.2008 56.1156L39.9466 55.685L39.9393 55.6893L39.9322 55.6939L40.2008 56.1156ZM58.8725 44.5107L39.9511 55.4164L40.4505 56.2828L59.3719 45.377L58.8725 44.5107ZM39.9322 55.4279C39.4796 55.7162 39.0891 55.8109 38.7679 55.7988C38.4477 55.7867 38.1584 55.6671 37.9069 55.4621L37.275 56.2371C37.6759 56.564 38.1696 56.7769 38.7302 56.7981C39.2899 56.8192 39.878 56.648 40.4694 56.2713L39.9322 55.4279ZM37.234 55.4994L37.1035 55.6324L37.8174 56.3328L37.9478 56.1998L37.234 55.4994ZM37.1036 56.3328L37.234 56.4658L37.9478 55.7654L37.8173 55.6324L37.1036 56.3328ZM37.275 56.5031C37.6759 56.83 38.1696 57.0429 38.7302 57.0641C39.2899 57.0852 39.878 56.914 40.4694 56.5373L39.9322 55.6939C39.4796 55.9821 39.0891 56.0769 38.7679 56.0648C38.4477 56.0527 38.1584 55.9331 37.9069 55.7281L37.275 56.5031ZM40.455 56.5461L59.3764 45.3744L58.868 44.5133L39.9466 55.685L40.455 56.5461Z" fill="#454056" mask="url(#path-9-inside-1_5762_39403)"/>
</g>
<g opacity="0.2">
<mask id="path-11-inside-2_5762_39403" fill="white">
<path d="M37.4595 55.8494C37.068 55.4504 36.9375 54.7854 36.9375 53.9874V54.1204C36.9375 54.9184 37.1985 55.5834 37.59 55.9824V55.8494H37.4595ZM65.6458 41.2197L59.1212 44.9436L59.2517 45.0766L65.6458 41.3527C66.5593 40.8207 66.9508 40.1557 66.9508 39.4907C66.9508 40.1557 66.4288 40.6877 65.6458 41.2197V41.2197Z"/>
</mask>
<path d="M37.4595 55.8494C37.068 55.4504 36.9375 54.7854 36.9375 53.9874V54.1204C36.9375 54.9184 37.1985 55.5834 37.59 55.9824V55.8494H37.4595ZM65.6458 41.2197L59.1212 44.9436L59.2517 45.0766L65.6458 41.3527C66.5593 40.8207 66.9508 40.1557 66.9508 39.4907C66.9508 40.1557 66.4288 40.6877 65.6458 41.2197V41.2197Z" fill="white"/>
<path d="M37.4595 55.8494L37.1026 56.1995L37.2496 56.3494H37.4595V55.8494ZM37.59 55.9824L37.2331 56.3325L38.09 57.2059V55.9824H37.59ZM37.59 55.8494H38.09V55.3494H37.59V55.8494ZM59.1212 44.9436L58.8734 44.5094L58.3101 44.8308L58.7643 45.2938L59.1212 44.9436ZM59.2517 45.0766L58.8948 45.4268L59.1672 45.7044L59.5033 45.5087L59.2517 45.0766ZM65.6458 41.3527L65.3942 40.9206L65.6458 41.3527ZM37.8164 55.4992C37.5734 55.2515 37.4375 54.7676 37.4375 53.9874H36.4375C36.4375 54.8031 36.5626 55.6492 37.1026 56.1995L37.8164 55.4992ZM36.4375 53.9874V54.1204H37.4375V53.9874H36.4375ZM36.4375 54.1204C36.4375 55.0183 36.7302 55.82 37.2331 56.3325L37.9469 55.6322C37.6668 55.3467 37.4375 54.8185 37.4375 54.1204H36.4375ZM38.09 55.9824V55.8494H37.09V55.9824H38.09ZM37.59 55.3494H37.4595V56.3494H37.59V55.3494ZM65.398 40.7854L58.8734 44.5094L59.3691 45.3778L65.8937 41.6539L65.398 40.7854ZM58.7643 45.2938L58.8948 45.4268L59.6086 44.7264L59.4781 44.5934L58.7643 45.2938ZM59.5033 45.5087L65.8975 41.7847L65.3942 40.9206L59.0001 44.6445L59.5033 45.5087ZM65.8975 41.7847C66.9158 41.1917 67.4508 40.3838 67.4508 39.4907H66.4508C66.4508 39.9276 66.2028 40.4497 65.3942 40.9206L65.8975 41.7847ZM66.4508 39.4907C66.4508 39.872 66.152 40.2712 65.3648 40.8061L65.9268 41.6332C66.7056 41.1041 67.4508 40.4394 67.4508 39.4907H66.4508Z" fill="#454056" mask="url(#path-11-inside-2_5762_39403)"/>
</g>
<g opacity="0.2">
<mask id="path-13-inside-3_5762_39403" fill="white">
<path d="M40.1998 22.9994L65.6458 37.7621C66.4288 38.2941 66.9508 38.8261 66.9508 39.4911C66.9508 38.8261 66.5593 38.1611 65.6458 37.6291L40.1998 22.8664C38.3729 21.8025 36.9375 22.6004 36.9375 24.7284V24.8614C36.9375 22.8664 38.3729 21.9355 40.1998 22.9994Z"/>
</mask>
<path d="M40.1998 22.9994L65.6458 37.7621C66.4288 38.2941 66.9508 38.8261 66.9508 39.4911C66.9508 38.8261 66.5593 38.1611 65.6458 37.6291L40.1998 22.8664C38.3729 21.8025 36.9375 22.6004 36.9375 24.7284V24.8614C36.9375 22.8664 38.3729 21.9355 40.1998 22.9994Z" fill="white"/>
<path d="M40.1998 22.9994L39.9482 23.4315L39.9489 23.4319L40.1998 22.9994ZM65.6458 37.7621L65.9268 37.3485L65.9121 37.3385L65.8968 37.3296L65.6458 37.7621ZM65.6458 37.6291L65.8975 37.197L65.8968 37.1966L65.6458 37.6291ZM40.1998 22.8664L39.9482 23.2985L39.9489 23.2989L40.1998 22.8664ZM39.9489 23.4319L65.3949 38.1946L65.8968 37.3296L40.4507 22.567L39.9489 23.4319ZM65.3648 38.1757C66.152 38.7105 66.4508 39.1098 66.4508 39.4911H67.4508C67.4508 38.5424 66.7056 37.8776 65.9268 37.3485L65.3648 38.1757ZM67.4508 39.4911C67.4508 38.5979 66.9158 37.7901 65.8975 37.197L65.3942 38.0612C66.2028 38.5321 66.4508 39.0542 66.4508 39.4911H67.4508ZM65.8968 37.1966L40.4507 22.434L39.9489 23.2989L65.3949 38.0616L65.8968 37.1966ZM40.4514 22.4344C39.4562 21.8548 38.44 21.7108 37.6372 22.1654C36.8321 22.6212 36.4375 23.5676 36.4375 24.7284H37.4375C37.4375 23.7612 37.7606 23.2447 38.1299 23.0355C38.5016 22.8251 39.1165 22.8142 39.9482 23.2985L40.4514 22.4344ZM36.4375 24.7284V24.8614H37.4375V24.7284H36.4375ZM37.4375 24.8614C37.4375 23.9726 37.7538 23.4422 38.1391 23.2131C38.5184 22.9876 39.1316 22.9559 39.9482 23.4315L40.4514 22.5674C39.4411 21.979 38.4231 21.8808 37.6281 22.3535C36.8389 22.8227 36.4375 23.7553 36.4375 24.8614H37.4375Z" fill="#454056" mask="url(#path-13-inside-3_5762_39403)"/>
</g>
<rect x="16.5" y="8.5" width="200" height="63" rx="7.5" stroke="#454056"/>
</g>
<defs>
<filter id="filter0_dd_5762_39403" x="0" y="0" width="233" height="96" filterUnits="userSpaceOnUse" color-interpolation-filters="sRGB">
<feFlood flood-opacity="0" result="BackgroundImageFix"/>
<feColorMatrix in="SourceAlpha" type="matrix" values="0 0 0 0 0 0 0 0 0 0 0 0 0 0 0 0 0 0 127 0" result="hardAlpha"/>
<feOffset dy="8"/>
<feGaussianBlur stdDeviation="8"/>
<feColorMatrix type="matrix" values="0 0 0 0 0.121569 0 0 0 0 0.105882 0 0 0 0 0.176471 0 0 0 0.16 0"/>
<feBlend mode="normal" in2="BackgroundImageFix" result="effect1_dropShadow_5762_39403"/>
<feColorMatrix in="SourceAlpha" type="matrix" values="0 0 0 0 0 0 0 0 0 0 0 0 0 0 0 0 0 0 127 0" result="hardAlpha"/>
<feMorphology radius="6" operator="erode" in="SourceAlpha" result="effect2_dropShadow_5762_39403"/>
<feOffset dy="4"/>
<feGaussianBlur stdDeviation="6"/>
<feColorMatrix type="matrix" values="0 0 0 0 0.121569 0 0 0 0 0.105882 0 0 0 0 0.176471 0 0 0 0.2 0"/>
<feBlend mode="normal" in2="effect1_dropShadow_5762_39403" result="effect2_dropShadow_5762_39403"/>
<feBlend mode="normal" in="SourceGraphic" in2="effect2_dropShadow_5762_39403" result="shape"/>
</filter>
<linearGradient id="paint0_linear_5762_39403" x1="116.5" y1="8" x2="116.5" y2="72" gradientUnits="userSpaceOnUse">
<stop stop-color="#454056" stop-opacity="0.85"/>
<stop offset="1" stop-color="#454056"/>
</linearGradient>
</defs>
</svg>
